HIERARCHY
ROOT Hips
{
  OFFSET 5.72205e-005 65.662 3.42586
  CHANNELS 6 Xposition Yposition Zposition Zrotation Xrotation Yrotation
  JOINT Chest
  {
    OFFSET 0 8.7983 -4.7612
    CHANNELS 3 Zrotation Xrotation Yrotation
    JOINT Chest2
    {
      OFFSET 0 8.0291 0.4195
      CHANNELS 3 Zrotation Xrotation Yrotation
      JOINT Chest3
      {
        OFFSET 0 9.9351 -2.2114
        CHANNELS 3 Zrotation Xrotation Yrotation
        JOINT Neck
        {
          OFFSET 0 22.3885 -0.4656
          CHANNELS 3 Zrotation Xrotation Yrotation
          JOINT Head
          {
            OFFSET -0.0001 12.643 3.4389
            CHANNELS 3 Zrotation Xrotation Yrotation
            End Site
            {
              OFFSET 0.0001 17.6655 0.5274
            }
          }
        }
        JOINT LeftCollar
        {
          OFFSET 2.2603 21.606 7.4023
          CHANNELS 3 Zrotation Xrotation Yrotation
          JOINT LeftShoulder
          {
            OFFSET 13.5163 -1.1332 -5.0146
            CHANNELS 3 Zrotation Xrotation Yrotation
            JOINT LeftElbow
            {
              OFFSET -0.0995 -28.05 -0.2431
              CHANNELS 3 Zrotation Xrotation Yrotation
              JOINT LeftWrist
              {
                OFFSET 0.0679 -23.3996 -0.1402
                CHANNELS 3 Zrotation Xrotation Yrotation
                JOINT LeftFinger1
                {
                  OFFSET 0.7932 -9.069 2.5189
                  CHANNELS 3 Zrotation Xrotation Yrotation
                  JOINT LeftFinger11
                  {
                    OFFSET -0.8272 -3.3923 0.5977
                    CHANNELS 3 Zrotation Xrotation Yrotation
                    JOINT LeftFinger12
                    {
                      OFFSET -0.5649 -2.3158 0.4082
                      CHANNELS 3 Zrotation Xrotation Yrotation
                      End Site
                      {
                        OFFSET -0.4919 -1.6479 0.2673
                      }
                    }
                  }
                }
                JOINT LeftFinger2
                {
                  OFFSET 0.9159 -9.2044 0.2193
                  CHANNELS 3 Zrotation Xrotation Yrotation
                  JOINT LeftFinger21
                  {
                    OFFSET 0.0117 -4.1944 -0.0248
                    CHANNELS 3 Zrotation Xrotation Yrotation
                    JOINT LeftFinger22
                    {
                      OFFSET 0.0071 -2.3249 -0.0142
                      CHANNELS 3 Zrotation Xrotation Yrotation
                      End Site
                      {
                        OFFSET -0.1475 -2.0882 0.0028
                      }
                    }
                  }
                }
                JOINT LeftFinger3
                {
                  OFFSET 0.6113 -8.7231 -2.0637
                  CHANNELS 3 Zrotation Xrotation Yrotation
                  JOINT LeftFinger31
                  {
                    OFFSET -0.1927 -3.8059 -0.2383
                    CHANNELS 3 Zrotation Xrotation Yrotation
                    JOINT LeftFinger32
                    {
                      OFFSET -0.1091 -2.1688 -0.1362
                      CHANNELS 3 Zrotation Xrotation Yrotation
                      End Site
                      {
                        OFFSET -0.2358 -1.9176 -0.0906
                      }
                    }
                  }
                }
                JOINT LeftFinger4
                {
                  OFFSET -0.6151 -8.0947 -3.5641
                  CHANNELS 3 Zrotation Xrotation Yrotation
                  JOINT LeftFinger41
                  {
                    OFFSET -0.4882 -2.341 -0.6462
                    CHANNELS 3 Zrotation Xrotation Yrotation
                    JOINT LeftFinger42
                    {
                      OFFSET -0.3575 -1.7167 -0.4742
                      CHANNELS 3 Zrotation Xrotation Yrotation
                      End Site
                      {
                        OFFSET -0.4187 -1.5237 -0.3496
                      }
                    }
                  }
                }
                JOINT LeftFinger0
                {
                  OFFSET -1.42 -1.8761 1.4223
                  CHANNELS 3 Zrotation Xrotation Yrotation
                  JOINT LeftFinger01
                  {
                    OFFSET -1.1471 -3.4929 2.6334
                    CHANNELS 3 Zrotation Xrotation Yrotation
                    JOINT LeftFinger02
                    {
                      OFFSET -0.823 -2.3 1.6571
                      CHANNELS 3 Zrotation Xrotation Yrotation
                      End Site
                      {
                        OFFSET -0.5822 -1.6914 1.1582
                      }
                    }
                  }
                }
              }
            }
          }
        }
        JOINT RightCollar
        {
          OFFSET -2.2603 21.606 7.4023
          CHANNELS 3 Zrotation Xrotation Yrotation
          JOINT RightShoulder
          {
            OFFSET -13.5187 -1.1334 -5.0155
            CHANNELS 3 Zrotation Xrotation Yrotation
            JOINT RightElbow
            {
              OFFSET 0.0994 -28.0499 -0.2431
              CHANNELS 3 Zrotation Xrotation Yrotation
              JOINT RightWrist
              {
                OFFSET -0.0679 -23.3996 -0.1402
                CHANNELS 3 Zrotation Xrotation Yrotation
                JOINT RightFinger1
                {
                  OFFSET -0.7932 -9.0691 2.5189
                  CHANNELS 3 Zrotation Xrotation Yrotation
                  JOINT RightFinger11
                  {
                    OFFSET 0.8272 -3.3923 0.5977
                    CHANNELS 3 Zrotation Xrotation Yrotation
                    JOINT RightFinger12
                    {
                      OFFSET 0.565 -2.3158 0.4082
                      CHANNELS 3 Zrotation Xrotation Yrotation
                      End Site
                      {
                        OFFSET 0.4919 -1.6479 0.2673
                      }
                    }
                  }
                }
                JOINT RightFinger2
                {
                  OFFSET -0.916 -9.2044 0.2193
                  CHANNELS 3 Zrotation Xrotation Yrotation
                  JOINT RightFinger21
                  {
                    OFFSET -0.0117 -4.1944 -0.0248
                    CHANNELS 3 Zrotation Xrotation Yrotation
                    JOINT RightFinger22
                    {
                      OFFSET -0.0071 -2.3249 -0.0142
                      CHANNELS 3 Zrotation Xrotation Yrotation
                      End Site
                      {
                        OFFSET 0.1475 -2.0882 0.0028
                      }
                    }
                  }
                }
                JOINT RightFinger3
                {
                  OFFSET -0.6113 -8.7231 -2.0637
                  CHANNELS 3 Zrotation Xrotation Yrotation
                  JOINT RightFinger31
                  {
                    OFFSET 0.1927 -3.8059 -0.2383
                    CHANNELS 3 Zrotation Xrotation Yrotation
                    JOINT RightFinger32
                    {
                      OFFSET 0.1091 -2.1688 -0.1362
                      CHANNELS 3 Zrotation Xrotation Yrotation
                      End Site
                      {
                        OFFSET 0.2358 -1.9176 -0.0906
                      }
                    }
                  }
                }
                JOINT RightFinger4
                {
                  OFFSET 0.6151 -8.0947 -3.564
                  CHANNELS 3 Zrotation Xrotation Yrotation
                  JOINT RightFinger41
                  {
                    OFFSET 0.4882 -2.341 -0.6462
                    CHANNELS 3 Zrotation Xrotation Yrotation
                    JOINT RightFinger42
                    {
                      OFFSET 0.3574 -1.7166 -0.4742
                      CHANNELS 3 Zrotation Xrotation Yrotation
                      End Site
                      {
                        OFFSET 0.4187 -1.5237 -0.3496
                      }
                    }
                  }
                }
                JOINT RightFinger0
                {
                  OFFSET 1.4199 -1.8761 1.4221
                  CHANNELS 3 Zrotation Xrotation Yrotation
                  JOINT RightFinger01
                  {
                    OFFSET 1.1472 -3.4929 2.6336
                    CHANNELS 3 Zrotation Xrotation Yrotation
                    JOINT RightFinger02
                    {
                      OFFSET 0.8229 -2.3 1.6571
                      CHANNELS 3 Zrotation Xrotation Yrotation
                      End Site
                      {
                        OFFSET 0.5822 -1.6914 1.1582
                      }
                    }
                  }
                }
              }
            }
          }
        }
      }
    }
  }
  JOINT RightHip
  {
    OFFSET -9.412 3.9771 -0.7758
    CHANNELS 3 Zrotation Xrotation Yrotation
    JOINT RightKnee
    {
      OFFSET -0.7531 -40.938 0
      CHANNELS 3 Zrotation Xrotation Yrotation
      JOINT RightAnkle
      {
        OFFSET 0 -40.1986 0
        CHANNELS 3 Zrotation Xrotation Yrotation
        JOINT RightToe
        {
          OFFSET 0 -4.4182 9.239
          CHANNELS 3 Zrotation Xrotation Yrotation
          End Site
          {
            OFFSET 0 0 6.1981
          }
        }
      }
    }
  }
  JOINT LeftHip
  {
    OFFSET 9.4119 3.9773 -0.7758
    CHANNELS 3 Zrotation Xrotation Yrotation
    JOINT LeftKnee
    {
      OFFSET 0.7532 -40.9383 0
      CHANNELS 3 Zrotation Xrotation Yrotation
      JOINT LeftAnkle
      {
        OFFSET 0 -40.1986 0
        CHANNELS 3 Zrotation Xrotation Yrotation
        JOINT LeftToe
        {
          OFFSET 0 -4.4182 9.239
          CHANNELS 3 Zrotation Xrotation Yrotation
          End Site
          {
            OFFSET 0 0 6.1981
          }
        }
      }
    }
  }
}
MOTION
Frames:	4
Frame Time:	0.0333333
0.0158716 65.6279 -2.44062 3.389e-007 22.2969 -6.70949e-008 -0.247643 1.53851 -0.179988 -0.490715 3.0778 -0.353513 -0.490716 3.07781 -0.353513 -2.52207e-005 6.99699 -2.01598e-005 -2.58415e-007 9.90092 -1.3403e-007 5.39 13.3706 -7.3559 9.26042 5.18804 24.6271 -25.3614 4.46974 -5.97153 -4.44758 -27.84 -7.9833 -3.97569e-016 1.59028e-015 1.59028e-015 1.98785e-015 0 -1.59028e-015 -1.19271e-015 0 -0 -3.97569e-016 1.59028e-015 1.59028e-015 -0.0128042 0.00232269 8.72535e-005 -3.97569e-016 7.95139e-015 -1.59028e-015 -3.97569e-016 1.59028e-015 1.59028e-015 -0.0160548 0.00300001 0.000859317 1.59028e-015 -1.59028e-015 -1.59028e-015 -3.97569e-016 1.59028e-015 1.59028e-015 -0.012548 0.00311897 0.00281969 -1.98785e-015 9.54166e-015 3.18055e-015 -3.97569e-016 1.59028e-015 1.59028e-015 1.98785e-015 0 -1.59028e-015 -1.19271e-015 0 -0 1.67055 3.30396 14.128 -8.22883 -14.2202 14.0126 13.246 -34.9758 13.1071 0.279889 2.32235 -29.9307 7.96655e-006 -8.99052e-007 -1.27532e-006 -1.60735e-005 9.54136e-007 1.28599e-006 1.12313e-014 2.38542e-015 -0 7.96655e-006 -8.99052e-007 -1.27532e-006 0.0129546 0.00231503 -8.4638e-005 -5.1684e-015 7.95139e-016 -0 7.96655e-006 -8.99052e-007 -1.27532e-006 0.0163222 0.00303361 -0.000872783 1.2921e-015 -7.95139e-016 -0 7.96655e-006 -8.99052e-007 -1.27532e-006 0.0145705 0.00368027 -0.00325964 -5.36719e-015 0 -7.95139e-016 7.96655e-006 -8.99052e-007 -1.27532e-006 -1.60735e-005 9.54136e-007 1.28599e-006 1.12313e-014 2.38542e-015 -0 1.6955 -19.8889 -15.099 -144.467 79.221 142.544 10.6928 22.3047 -13.6864 -2.35815e-006 -4.77224e-006 -7.63978e-007 -1.63098 -21.8965 14.9128 134.357 80.2695 -133.028 -25.6439 49.0819 46.2125 -3.77869e-007 2.00545e-007 -7.58453e-007 
0.015842 65.6381 -2.27011 3.98976e-008 21.7712 2.18847e-008 -0.248883 1.96821 -0.179581 -0.492024 3.93717 -0.35091 -0.492024 3.93717 -0.35091 2.53615e-006 6.99681 2.17919e-006 9.24419e-007 10.5772 2.75446e-007 5.20019 12.0274 -7.46762 9.26032 5.18806 24.6272 -25.0962 4.42735 -5.86908 -4.53229 -27.8759 -7.66291 1.98785e-015 -3.18055e-015 -1.59028e-015 -2.28622e-007 -1.65028e-006 8.04451e-007 7.95139e-016 0 3.18055e-015 1.98785e-015 -3.18055e-015 -1.59028e-015 -0.0128307 0.00232232 8.5282e-005 1.37821e-006 -7.49031e-007 1.55508e-007 1.98785e-015 -3.18055e-015 -1.59028e-015 -0.0160481 0.00299833 0.000857867 -7.95139e-016 0 -0 1.98785e-015 -3.18055e-015 -1.59028e-015 -0.0126013 0.00312567 0.00283115 -1.76556e-031 -6.36111e-015 -1.59028e-015 1.98785e-015 -3.18055e-015 -1.59028e-015 -2.28622e-007 -1.65028e-006 8.04451e-007 7.95139e-016 0 3.18055e-015 2.401 2.90616 14.1622 -9.42592 -14.997 13.9623 13.2435 -34.9759 13.1385 0.80425 1.46044 -29.0058 -3.97569e-015 -3.18055e-015 1.59028e-015 -9.93923e-015 -1.59028e-015 -0 -6.36111e-015 0 -0 -3.97569e-015 -3.18055e-015 1.59028e-015 0.0129444 0.0023203 -8.7655e-005 -2.38542e-015 0 -0 -3.97569e-015 -3.18055e-015 1.59028e-015 0.016332 0.00303896 -0.0008764 -6.06293e-015 7.95139e-016 1.59028e-015 -3.97569e-015 -3.18055e-015 1.59028e-015 0.0145614 0.00367735 -0.00326231 -1.98785e-016 7.95139e-016 -1.59028e-015 -3.97569e-015 -3.18055e-015 1.59028e-015 -9.93923e-015 -1.59028e-015 -0 -6.36111e-015 0 -0 1.72916 -19.1928 -15.0494 -144.425 79.2397 142.502 10.692 22.3063 -13.6846 -9.44274e-007 1.19394e-007 1.36416e-006 -1.65686 -21.2827 14.8712 134.66 80.2309 -133.315 -25.642 49.0839 46.2102 3.76207e-007 -3.20286e-007 7.59061e-007 
0.0158057 65.6489 -2.09965 -1.66177e-008 21.2456 9.76761e-008 -0.250002 2.3963 -0.179106 -0.493145 4.7934 -0.348192 -0.493146 4.79341 -0.348192 -2.32887e-006 6.99685 -1.90879e-006 6.47989e-007 11.2533 -1.67704e-007 5.00872 10.6857 -7.58331 9.26032 5.18805 24.6272 -24.8306 4.38477 -5.76833 -4.6168 -27.9122 -7.34242 -0 0 1.59028e-015 1.19271e-015 3.18055e-015 -0 8.82781e-032 3.18055e-015 -1.59028e-015 -0 0 1.59028e-015 -0.0128595 0.0023343 8.37556e-005 7.95139e-016 -6.36111e-015 -0 -0 0 1.59028e-015 -0.0160324 0.00298851 0.000859448 -3.57812e-015 -3.18055e-015 -0 -0 0 1.59028e-015 -0.0125792 0.00312165 0.00282456 -3.97569e-016 0 4.77083e-015 -0 0 1.59028e-015 1.19271e-015 3.18055e-015 -0 8.82781e-032 3.18055e-015 -1.59028e-015 3.13124 2.50915 14.2015 -10.6272 -15.772 13.8951 13.241 -34.976 13.1699 1.34194 0.607712 -28.074 7.67093e-006 2.11715e-006 4.99407e-008 9.16042e-006 2.03179e-006 -3.36339e-006 1.19319e-005 2.83701e-006 -1.85122e-006 7.67093e-006 2.11715e-006 4.99407e-008 0.0129479 0.0023146 -9.06413e-005 4.48272e-006 2.5349e-006 -2.51939e-006 7.67093e-006 2.11715e-006 4.99407e-008 0.0163116 0.00302754 -0.00087211 1.20566e-005 2.34822e-006 -3.30687e-006 7.67093e-006 2.11715e-006 4.99407e-008 0.0146043 0.00368432 -0.00326597 1.60704e-005 -8.8279e-007 -2.29553e-006 7.67093e-006 2.11715e-006 4.99407e-008 9.16042e-006 2.03179e-006 -3.36339e-006 1.19319e-005 2.83701e-006 -1.85122e-006 1.76194 -18.5111 -15.0003 -144.429 79.2474 142.504 10.6913 22.308 -13.6829 -4.953e-006 -3.18856e-006 3.14411e-007 -1.68221 -20.5125 14.8328 134.283 80.2962 -132.952 -25.64 49.0858 46.2078 -9.14409e-015 3.18055e-015 -0 
0.0157713 65.6604 -1.92925 -2.6523e-008 20.72 1.85278e-008 -0.251012 2.82232 -0.178574 -0.494103 5.64539 -0.34538 -0.494103 5.64539 -0.345379 6.31942e-006 6.99674 5.04022e-006 1.75256e-007 11.9293 3.32606e-007 4.81549 9.34544 -7.70293 9.26036 5.188 24.6272 -24.5646 4.34213 -5.66926 -4.701 -27.9489 -7.02176 -1.59028e-015 -3.18055e-015 3.18055e-015 7.95139e-016 3.18055e-015 3.18055e-015 -1.19271e-015 -6.36111e-015 3.18055e-015 -1.59028e-015 -3.18055e-015 3.18055e-015 -0.0128457 0.00232867 8.53752e-005 -7.95139e-016 -1.59028e-014 1.59028e-015 -1.59028e-015 -3.18055e-015 3.18055e-015 -0.0160532 0.0029944 0.00085683 -1.19271e-015 -3.18055e-015 -1.59028e-015 -1.59028e-015 -3.18055e-015 3.18055e-015 -0.0125851 0.00311771 0.0028274 1.98785e-015 3.18055e-015 3.18055e-015 -1.59028e-015 -3.18055e-015 3.18055e-015 7.95139e-016 3.18055e-015 3.18055e-015 -1.19271e-015 -6.36111e-015 3.18055e-015 3.8613 2.11267 14.2457 -11.833 -16.5447 13.8107 13.2385 -34.976 13.2013 1.89286 -0.23534 -27.1351 4.11301e-006 7.6404e-007 -1.18769e-006 -4.11301e-006 -1.63116e-006 1.18769e-006 4.11301e-006 7.98695e-007 -1.18769e-006 4.11301e-006 7.6404e-007 -1.18769e-006 0.0129399 0.00232018 -9.0095e-005 -9.87907e-008 1.14106e-008 -8.34775e-007 4.11301e-006 7.6404e-007 -1.18769e-006 0.0163074 0.00303383 -0.000874698 -1.54902e-006 -5.06862e-007 3.00113e-007 4.11301e-006 7.6404e-007 -1.18769e-006 0.0145434 0.00366733 -0.00325034 -9.87669e-008 2.89099e-008 -8.34785e-007 4.11301e-006 7.6404e-007 -1.18769e-006 -4.11301e-006 -1.63116e-006 1.18769e-006 4.11301e-006 7.98695e-007 -1.18769e-006 1.7943 -17.7269 -14.9535 -144.093 79.3346 142.185 10.6907 22.3096 -13.6812 -7.95139e-015 9.54166e-015 -3.18055e-015 -1.70681 -19.8213 14.7936 134.247 80.3091 -132.916 -25.6381 49.0878 46.2054 3.58717e-006 2.11127e-006 3.39441e-007 
